<svg width="35" height="35" viewBox="0 0 35 35" fill="none" xmlns="http://www.w3.org/2000/svg">
<g clip-path="url(#clip0_10012_86561)">
<rect width="35" height="35" fill="#E85F29"/>
<path d="M11.3497 21.3116C11.3497 19.5728 12.2572 18.5793 13.9191 18.5793C15.5811 18.5793 16.4895 19.5731 16.4895 21.3116V26.9649C16.4895 28.7031 15.5811 29.6971 13.9191 29.6971C12.2572 29.6971 11.3497 28.7031 11.3497 26.9649V21.3116ZM13.0418 27.0737C13.0418 27.85 13.3806 28.1449 13.9191 28.1449C14.4577 28.1449 14.7968 27.85 14.7968 27.0737V21.2031C14.7968 20.4265 14.4586 20.1322 13.9191 20.1322C13.3797 20.1322 13.0418 20.4265 13.0418 21.2031V27.0737ZM21.5392 25.5211V27.0737C21.5392 27.85 21.1942 28.1292 20.6456 28.1292C20.0969 28.1292 19.7525 27.85 19.7525 27.0737V21.2031C19.7525 20.4265 20.0972 20.1322 20.6456 20.1322C21.1939 20.1322 21.5392 20.4265 21.5392 21.2031V22.3674H23.1686V21.3119C23.1686 19.5731 22.2912 18.5796 20.5989 18.5796C18.9065 18.5796 18.0288 19.5734 18.0288 21.3119V26.9649C18.0288 28.7037 18.9062 29.6971 20.5989 29.6971C22.2915 29.6971 23.1686 28.7034 23.1686 26.9649V25.5214H21.5392V25.5211ZM4.65958 8.06242C4.65958 6.32367 5.57626 5.33019 7.25295 5.33019C8.92964 5.33019 9.84631 6.32398 9.84631 8.06242V13.7158C9.84631 14.3216 9.73695 14.8334 9.52068 15.237C9.59748 15.4392 9.72221 15.4708 10.0018 15.4708H10.1572V16.9921H9.92342C9.1628 16.9921 8.68142 16.7122 8.44826 16.2468C8.10696 16.3709 7.7033 16.4483 7.25264 16.4483C5.57595 16.4483 4.65927 15.4548 4.65927 13.7161V8.06272L4.65958 8.06242ZM6.36791 13.8245C6.36791 14.6008 6.70982 14.8957 7.25295 14.8957C7.79607 14.8957 8.13799 14.6008 8.13799 13.8245V7.95397C8.13799 7.17738 7.79638 6.88308 7.25295 6.88308C6.70951 6.88308 6.36791 7.17738 6.36791 7.95397V13.8245ZM11.3716 5.454V13.7308C11.3716 15.4708 12.2409 16.4643 13.9185 16.4643C15.5961 16.4643 16.4646 15.4708 16.4646 13.7308V5.454H14.8503V13.8402C14.8503 14.6162 14.508 14.8954 13.9652 14.8954C13.4224 14.8954 13.0802 14.6162 13.0802 13.8402V5.454H11.3719H11.3716ZM23.5805 16.3242H21.8562L21.5619 14.3517H19.4656L19.1707 16.3242H17.6018L19.3412 5.454H21.8415L23.5808 16.3242H23.5805ZM19.6831 12.8771H21.3288L20.5211 7.37982H20.4898L19.6828 12.8771H19.6831ZM28.5372 16.3236H30.3813V5.454H28.7817V11.9611H28.7498L26.9379 5.454H24.6861V16.3239H26.3017V8.45071H26.3343L28.5372 16.3239V16.3236ZM4.65129 20.2554H6.51014V29.573H8.2879V20.2554H10.1468V18.7025H4.65129V20.2554ZM28.6121 29.573H30.3671L27.9913 23.5483L30.3671 18.7031H28.6588L26.4534 23.4076H26.4224V18.7031H24.7147V29.573H26.4224V26.2353L26.9505 25.2409L28.6121 29.573ZM0 0V35H30.5066L29.8554 33.2874H1.71263V1.71263H33.2871V33.2871H31.7898L32.4524 34.9997H35V0H0Z" fill="white"/>
</g>
<defs>
<clipPath id="clip0_10012_86561">
<rect width="35" height="35" fill="white"/>
</clipPath>
</defs>
</svg>
